PathFileType	4	(X/Y/Z)	Patient4_TMGait_0pt6_01_left_01.trc.trc
DataRate	CameraRate	NumFrames	NumMarkers	Units	OrigDataRate	OrigDataStartFrame	OrigNumFrames
82.352941176471	82.352941176471	5	33	mm	82.352941176471	89	       141
Frame#	Time	Sacral			L.Shoulder			Chest			R.Shoulder			Neck			R.ASIS			L.ASIS			R.Thigh.Superior			R.Thigh.Lateral			R.Thigh.Inferior			R.Patella			L.Thigh.Superior			L.Thigh.Lateral			L.Thigh.Inferior			L.Patella			L.Shank.Superior			L.Shank.Lateral			L.Shank.Inferior			R.Shank.Superior			R.Shank.Lateral			R.Shank.Inferior			R.Heel			R.Midfoot.Superior			R.Midfoot.Lateral			R.Toe			L.Heel			L.Midfoot.Lateral			L.Midfoot.Superior			L.Toe			L.Elbow			L.Wrist			R.Elbow			R.Wrist			
		X1	Y1	Z1	X2	Y2	Z2	X3	Y3	Z3	X4	Y4	Z4	X5	Y5	Z5	X6	Y6	Z6	X7	Y7	Z7	X8	Y8	Z8	X9	Y9	Z9	X10	Y10	Z10	X11	Y11	Z11	X12	Y12	Z12	X13	Y13	Z13	X14	Y14	Z14	X15	Y15	Z15	X16	Y16	Z16	X17	Y17	Z17	X18	Y18	Z18	X19	Y19	Z19	X20	Y20	Z20	X21	Y21	Z21	X22	Y22	Z22	X23	Y23	Z23	X24	Y24	Z24	X25	Y25	Z25	X26	Y26	Z26	X27	Y27	Z27	X28	Y28	Z28	X29	Y29	Z29	X30	Y30	Z30	X31	Y31	Z31	X32	Y32	Z32	X33	Y33	Z33	

89	2.238571428571	599.130653301336	995.092102675163	458.986008360651	749.295144049472	1430.607405224770	278.090171667009	860.379263963100	1364.205346715461	434.550592664335	779.449459398029	1430.305576134614	611.848369704094	736.715258902152	1488.814985098775	435.165935768989	833.205480710640	934.066285281974	566.889552646471	807.876653525081	958.164095788969	293.310925251541	894.879050830227	748.649182791598	533.187138707774	830.287384034170	630.994544958940	596.044516566252	913.172600503686	588.316709944305	515.036320043410	925.371693918312	497.781642540306	522.328898421010	838.766283406059	734.006601429326	313.986759645831	739.579275876782	624.060453414895	256.862660246340	823.046664490099	535.516876885015	310.028261709543	811.680351959871	451.584371511794	308.900713035792	745.424773539469	393.916034372918	308.002648304761	604.798700666632	341.839361597075	269.212468338120	603.440989886575	214.500433891530	329.095429129106	899.340372241903	406.943245820935	530.320221883614	831.413897164626	300.255569544331	591.455736876060	879.046254451394	207.490317210610	529.305650654164	751.719189165307	39.748702244054	495.724439214146	920.610874432199	97.377542008781	534.841299150473	832.882645832264	35.972419492758	573.099811949716	1040.325003955806	48.565176969554	567.190138803944	422.479513758469	128.514503559722	383.415543426362	478.343708266778	92.247286222097	298.100270532047	581.003309235431	117.984471625171	310.131579382237	672.381500617483	32.813603607036	274.621841421520	776.888266874230	1078.313397241854	157.475990040880	954.972153277312	887.486229250509	146.028410470309	712.212583467260	1087.764988178424	725.551756918389	764.032381680239	831.361214572938	730.085907737423	
90	2.250714285714	599.276219321663	996.015775088429	461.812706358175	747.440591990538	1431.934795111599	280.867824277436	860.212978773719	1365.262619790879	436.105059375190	780.946292773842	1430.811846198175	614.334148880117	736.664769769009	1489.770593951636	438.116119060156	834.034357709805	935.266263565701	568.431308151760	807.179591109975	958.979889847820	295.084252712052	893.466026674205	747.614360348853	536.283929057659	826.784366899709	631.091254342553	598.085088640086	909.215367621091	587.510778769637	517.122011910207	920.172390462769	497.084302832468	524.038158719761	844.016059324084	736.736840405576	316.117065612731	749.551385540827	624.243016156081	257.612782581984	835.564279831079	537.542752280297	311.004498003560	825.341379458664	452.352567490031	309.195339672256	757.036283353612	394.822925464043	308.389084174030	614.539961923950	347.885228319074	269.505578355244	608.564748362341	220.732163520696	329.370370605773	893.732981380006	406.495961210525	531.838126470435	825.237364283372	299.960668765905	592.545235211295	872.430006200163	207.192356535949	530.096512598909	744.581132984693	39.757514261225	495.895815307439	913.579201850617	97.271717789003	535.205802080553	825.718592627200	35.921299157345	573.302547693582	1033.212696892071	48.353039297695	567.382928219666	424.081355783157	143.442154498257	383.458217558348	478.110562649057	104.096598165218	298.128357738376	582.280050827193	124.106107972815	310.076466336279	668.329714684828	32.734211425648	274.592902860619	770.894891256574	1078.731250210235	161.638006352573	939.000174519077	878.878030691666	148.597388216074	721.690930095482	1086.242051996459	728.281850876973	784.218849760056	832.239518127092	731.353234493074	
91	2.262857142857	599.210694721970	996.932873570441	464.482815411928	745.546543822350	1433.155301318489	283.484345944839	860.006085988743	1366.191683377318	437.471510070811	782.462898617824	1431.235262922505	616.648426106152	736.612688280063	1490.663995647091	440.894472701801	834.642628530842	936.437911569046	569.927356654205	806.311226205955	959.681225543262	296.788959973463	891.781939349325	746.592041828713	539.353431398009	823.030522282908	631.173998980336	600.080049160289	905.025508713995	586.716669303170	519.198448578974	914.696126912559	496.425653889347	525.734158979517	849.072293102384	739.765042692609	318.271676829281	759.446727790354	624.891390959556	258.235181691907	847.832054775643	540.168591947506	311.970748587086	838.953678805111	453.820113484517	309.524714839892	768.932725001516	396.284657559756	308.742385458351	624.840710155394	354.015526958708	269.852317942868	614.744830597407	227.131015531373	329.753465987744	887.914009863983	406.085776772232	533.320843557159	818.920534055724	299.678714667648	593.594118827671	865.712995992547	206.923988422029	530.856915485402	737.386622443619	39.789515805484	496.073270468281	906.504585526592	97.179718747465	535.569402772826	818.507440740252	35.881458964252	573.511089931419	1026.052279385819	48.083297717165	567.577876993581	427.316834977326	157.719786600331	383.724828504910	479.602512567260	115.813325155378	298.298066184536	585.000582728159	130.547868046569	310.222541311089	666.113839892527	33.120285632292	274.525375705135	764.386027429965	1079.055523186813	165.612461688889	922.178031173730	870.843127219322	151.228599381070	731.454412819210	1084.819701682855	730.881169675536	804.969852473532	833.792063479264	732.391642378533	
92	2.275000000000	598.950737986910	997.836615997222	467.003402973097	743.678735089820	1434.257175442793	285.914088312336	859.777970730928	1366.985383254225	438.654094203697	783.987558485095	1431.594257285797	618.770715102998	736.575378869033	1491.495843188895	443.463052701752	835.043488500104	937.563119311253	571.390544612980	805.308185135785	960.286904336368	298.433274761816	889.872773759180	745.631444455096	542.280830001837	819.142372246977	631.258315614422	601.982748156454	900.692627928372	585.951978458003	521.196326853063	909.044515737371	495.812187762963	527.353694423380	853.822753951326	743.081212721575	320.422305967706	769.037675454593	626.049087768969	258.756346450815	859.637270965261	543.405078667661	312.865984353319	852.309189006898	456.008800908325	309.793029257867	780.943756510474	398.304667167876	309.004870895809	635.533590401995	360.014262929533	270.248782562317	622.031109645376	233.399417716149	330.193228230432	881.972507855834	405.711931933374	534.719004456947	812.535702857539	299.427101488772	594.567477366910	858.940427569278	206.681944386390	531.559815846355	730.134017775860	39.841475444621	496.258621878370	899.380749390332	97.097677230712	535.918195505434	811.248424562259	35.855006626490	573.723849949488	1018.843002442060	47.773020024709	567.775057013508	432.303012702461	170.615566813028	384.204376151292	483.038237467277	126.740176627640	298.605649814085	589.373177962297	136.957614547168	310.516410309491	666.224852865634	34.013337274739	274.402478046534	757.351735975252	1079.297970431735	169.371453061618	904.623472861700	863.469725613545	153.931506354553	741.500203993737	1083.538386362921	733.315109301599	826.177543621478	836.077278512344	733.152864036656	
93	2.287142857143	598.525751329804	998.726169571780	469.392071269427	741.890942005993	1435.242917223188	288.142225234341	859.543723416484	1367.653886193996	439.665632187845	785.507394641266	1431.920798232874	620.689201664269	736.562506078863	1492.274685798049	445.796194695628	835.258300442811	938.625263322515	572.826715529135	804.206194818153	960.834788633311	300.026772095966	887.779697157228	744.763489310136	544.970295594634	815.200789213572	631.355201600670	603.755189472122	896.271133176141	585.223651951744	523.054310042977	903.285655373621	495.245550942971	528.838136019706	858.186703482199	746.664753614316	322.532084118806	778.132236450112	627.726877781780	259.203915300779	870.819302902213	547.232924288966	313.623567149701	865.235389001625	458.913792027621	309.915644518911	792.934495702343	400.854444457810	309.125655162240	646.488580981798	365.639704824210	270.670634173756	630.486817359911	239.219669726445	330.624509489692	875.968255606705	405.373007912040	535.989331449701	806.129116529224	299.216970144435	595.431512064993	852.144727600715	206.464604034244	532.182981303355	722.829559325942	39.908298678918	496.449523980110	892.207919415644	97.022528303007	536.239570030446	803.946996270423	35.841810005769	573.934933525925	1011.590479532851	47.443945017641	567.972394579287	439.137833815151	181.445409593590	384.853105411993	488.607278882227	136.229979083205	299.020048997996	595.602548355409	142.943583127369	310.881585909091	669.117966587029	35.378298061227	274.201174087404	749.803531376222	1079.495432980537	172.899053132918	886.459801283109	856.826531321489	156.714305920782	751.818637556334	1082.455005722876	735.554652652871	847.733756860983	839.163259138634	733.584801988805	
